<svg xmlns="http://www.w3.org/2000/svg" viewBox="0 0 256 256" role="img" aria-labelledby="title desc">
  <title id="title">Jateng JS</title>
  <desc id="desc">A JavaScript badge for the Jateng JS community.</desc>
  <defs>
    <linearGradient id="glow" x1="34" x2="222" y1="36" y2="220" gradientUnits="userSpaceOnUse">
      <stop stop-color="#F7DF1E"/>
      <stop offset=".52" stop-color="#41D1FF"/>
      <stop offset="1" stop-color="#BD34FE"/>
    </linearGradient>
  </defs>
  <rect width="256" height="256" rx="56" fill="#101014"/>
  <path fill="url(#glow)" d="M46 52h164v164H46z"/>
  <path fill="#101014" d="M70 76h116v116H70z"/>
  <path fill="#F7DF1E" d="M90 159c6 10 13 15 24 15 10 0 16-5 16-20V91h24v64c0 27-16 41-39 41-21 0-35-11-43-25l18-12Zm77 10c7 7 17 12 28 12 12 0 19-5 19-13 0-9-7-12-20-18l-7-3c-21-9-35-20-35-43 0-21 16-37 42-37 18 0 32 6 41 23l-18 12c-5-9-11-13-23-13-10 0-17 6-17 15 0 10 6 13 21 19l7 3c25 11 38 21 38 44 0 25-20 39-47 39-26 0-43-12-52-28l21-12Z"/>
</svg>
